<?xml version="1.0" standalone="yes"?>
<svg xmlns="http://www.w3.org/2000/svg" width="1024" height="1024">
<path style="fill:#ffffff; stroke:none;" d="M0 0L0 1024L1024 1024L1024 0L0 0z"/>
<path style="fill:#dc2626; stroke:none;" d="M502.999 120.004C498.232 122.038 493.885 126.654 490 130C481.761 137.097 473.691 144.309 466 152C431.819 186.181 395.101 232.285 401.285 284C404.516 311.011 417.254 337.353 436.039 357C440.452 361.615 444.957 366.432 450 370.366C451.729 371.714 454.269 373.956 456.681 373.249C461.362 371.879 456.584 360.949 455.884 358C451.943 341.394 450.472 324.943 452.075 308C454.826 278.916 470.685 253.297 483.742 228C493.704 208.698 501.804 188.139 506.87 167C509.797 154.783 511.021 142.528 511 130C510.992 124.989 510.349 116.868 502.999 120.004M522.644 219.072C519.423 221.492 524.541 231.915 525.421 235C529.567 249.528 532.745 264.826 530.572 280C527.099 304.254 514.248 323.709 503.258 345C490.768 369.201 479.953 394.795 476.289 422C474.645 434.199 473.834 447.72 475.174 460C475.82 465.927 479.118 471.985 486 469.061C491.105 466.891 494.449 461.926 498.089 458C506.408 449.026 514.457 439.749 521.87 430C535.676 411.842 550.14 392.846 559.691 372C570.906 347.525 575.404 319.675 571.572 293C568.259 269.941 558.497 248.576 541.999 232C537.937 227.919 533.92 223.343 529 220.265C527.324 219.216 524.564 217.628 522.644 219.072M730 482C731.528 469.908 733.098 454.676 728.91 443C716.779 409.184 672.85 392.666 641 384.371C630.7 381.689 620.457 379.041 610 377.001C605.39 376.101 599.416 374.908 595.015 377.179C583.11 383.322 588.766 397.743 599 401.452C605.46 403.794 612.407 404.568 619 406.428C636.783 411.446 655.613 417.934 669.985 429.92C682.062 439.991 689.801 454.402 680.239 469C678.165 472.167 675.761 475.159 672.961 477.711C667.584 482.609 661.338 486.61 655 490.138C633.444 502.138 607.965 507.607 584 512.4C521.746 524.849 454.745 523.866 393 508.87C371.918 503.75 350.594 497.715 332 486.186C322.91 480.549 313.331 472.539 309.916 462C306.159 450.407 312.946 439.801 321.004 432.04C336.57 417.047 360.229 409.021 381 404.801C390.584 402.853 405.763 402.694 409.987 391.999C410.888 389.718 410.854 387.362 410.312 385C406.836 369.858 388.726 375.442 378 377.6C344.718 384.297 309.042 395.604 283 418.289C261.209 437.272 260.996 461.495 263.834 488C266.798 515.686 272.275 543.319 280.28 570C303.174 646.307 358.08 716.077 437 738.573C461.829 745.65 487.374 747.846 513 746.089C533.849 744.66 554.554 741.057 574 732.988C603.593 720.709 628.527 701.509 651 679C657.264 672.726 663.281 666.08 668.626 659C671.403 655.32 674.3 649.431 678.325 647.028C682.006 644.829 687.053 646.64 691 646.911C699.395 647.485 708.623 647.631 717 646.83C743.505 644.298 772.456 633.178 790.572 612.961C818.123 582.213 824.328 532.932 790 504.326C773.5 490.576 750.889 484.654 730 482z"/>
<path style="fill:#ffffff; stroke:none;" d="M725 525C721.51 536.037 719.842 547.82 716.576 559C711.759 575.485 705.198 591.024 699 607C721.138 606.985 744.707 601.562 759.699 584C772.387 569.137 776.078 544.517 756.996 532.93C747.525 527.179 735.622 526.979 725 525z"/>
<path style="fill:#dc2626; stroke:none;" d="M293.999 663.638C285.852 664.602 275.716 671.563 269 676.004C244.139 692.443 224.607 718.568 237.465 749C246.724 770.915 271.149 787.11 292 796.691C346.825 821.883 405.473 830.013 465 834.089C533.801 838.801 607.646 832.547 673 809.308C695.157 801.429 716.823 791.394 735 776.245C744.878 768.013 754.008 757.457 757.971 745C767.603 714.728 746.313 690.156 722 675.064C715.628 671.108 703.962 662.433 696.015 663.758C688.952 664.935 684.094 677.776 680.116 683C675.769 688.709 671.089 693.94 666.001 698.996C663.628 701.354 659.958 703.914 658.786 707.17C657.182 711.623 661.052 717.272 660.945 722C660.704 732.721 652.949 741.406 644.999 747.714C627.349 761.716 604.663 768.722 583 773.65C538.158 783.852 492.51 784.724 447 779.834C422.068 777.155 397.285 771.543 374 762.2C361.657 757.247 348.124 750.392 339.468 739.985C335.031 734.651 330.835 727.195 331.39 720C331.72 715.732 334.86 711.309 333.381 707.004C331.908 702.715 327.107 700.029 324.039 696.961C319.169 692.09 314.83 686.47 310.654 681C306.782 675.928 301.64 662.734 293.999 663.638z"/>
</svg>
